<svg xmlns="http://www.w3.org/2000/svg" viewBox="0 0 800 600" role="img" aria-labelledby="title desc">
  <title id="title">AI tooling thumbnail</title>
  <desc id="desc">A dashboard-like experiment analysis graphic.</desc>
  <rect width="800" height="600" fill="#f5f8fb"/>
  <rect x="88" y="86" width="624" height="428" rx="18" fill="#ffffff" stroke="#d6d9de" stroke-width="4"/>
  <g fill="#31445f">
    <rect x="132" y="136" width="138" height="18" rx="9"/>
    <rect x="132" y="174" width="90" height="14" rx="7" opacity="0.55"/>
  </g>
  <g fill="none" stroke-linecap="round" stroke-linejoin="round">
    <path d="M144 408c54-70 108-106 162-106 66 0 88 52 144 52 68 0 92-114 206-154" stroke="#1772d0" stroke-width="10"/>
    <path d="M144 448c58-44 112-66 162-66 62 0 92 28 144 28 70 0 104-48 206-66" stroke="#d0813d" stroke-width="10"/>
  </g>
  <g fill="#e9f2ff" stroke="#6e92bd" stroke-width="3">
    <circle cx="306" cy="302" r="18"/>
    <circle cx="450" cy="354" r="18"/>
    <circle cx="656" cy="200" r="18"/>
  </g>
  <g fill="#f3efe6">
    <rect x="486" y="132" width="176" height="36" rx="8"/>
    <rect x="486" y="184" width="132" height="36" rx="8"/>
    <rect x="486" y="236" width="154" height="36" rx="8"/>
  </g>
</svg>
